<?xml version="1.0" encoding="UTF-8"?>
<svg width="110px" height="24px" viewBox="0 0 110 24" version="1.1" xmlns="http://www.w3.org/2000/svg" xmlns:xlink="http://www.w3.org/1999/xlink">
    <title>neura-logo</title>
    <g id="Home" stroke="none" stroke-width="1" fill="none" fill-rule="evenodd">
        <g id="Desktop-HD" transform="translate(-127.000000, -3823.000000)">
            <g id="neura-logo" transform="translate(127.000000, 3823.000000)">
                <polygon id="Path" fill="#05BCF8" points="11 0 8.62760055 2.36911862 13.9140083 7.64678595 3.34882108 7.64678595 0 11 22 11"></polygon>
                <polygon id="Path" fill="#05BCF8" points="0 13 11 24 13.3647712 21.6308814 8.08599168 16.3459245 18.6511789 16.3459245 22 13"></polygon>
                <path d="M27.9579741,4.42007435 L27.9579741,4.42007435 C27.9579741,4.42007435 28.0334052,6.44981413 28.0334052,8.64312268 L28.0334052,21 L27,21 L27,3 L28.0032328,3 L40.0646552,19.5130112 L40.0646552,19.5130112 C40.0646552,19.5130112 39.9892241,17.4832714 39.9892241,15.3420074 L39.9892241,3 L41,3 L41,21 L40.0118534,21 L27.9579741,4.42007435 Z" id="Path" fill="#000000"></path>
                <polygon id="Path" fill="#000000" points="46 3 57.9767742 3 57.9767742 3.95010309 47.0374194 3.95010309 47.0374194 10.9942268 55.7703226 10.9942268 55.7703226 11.9517526 47.0374194 11.9517526 47.0374194 20.0498969 58 20.0498969 58 21 46 21"></polygon>
                <path d="M75,14.1289015 C75,19.2505067 72.702407,22 67.9923414,22 C63.2822757,22 61,19.2505067 61,14.1289015 L61,3 L62.0032823,3 L62.0032823,14.2367248 C62.0032823,18.6882854 63.8643326,21.0141873 67.9923414,21.0141873 C72.1203501,21.0141873 74.0043764,18.7036887 74.0043764,14.2367248 L74.0043764,3 L75,3 L75,14.1289015 Z" id="Path" fill="#000000"></path>
                <path d="M85.0665362,13.3791822 C84.5812133,13.3791822 83.4305284,13.3791822 82.9765166,13.3791822 L80.0489237,13.3791822 L80.0489237,21 L79,21 L79,3 L84.072407,3 C88.3150685,3 90.8434442,4.9330855 90.8434442,8.38289963 C90.8434442,11.3568773 89.0117417,12.8438662 86.146771,13.2304833 L91,21 L89.7240705,21 L85.0665362,13.3791822 Z M84.2446184,12.5315985 C87.4931507,12.5315985 89.8258317,11.527881 89.8258317,8.38289963 C89.8258317,5.23791822 87.5714286,3.92193309 84.0567515,3.92193309 L80.0567515,3.92193309 L80.0567515,12.5315985 L84.2446184,12.5315985 Z" id="Shape" fill="#000000"></path>
                <path d="M96.5469784,15.3420074 L94.0573445,21 L93,21 L101.001323,3 L101.998677,3 L110,21 L108.942655,21 L106.423026,15.3122677 L96.5469784,15.3420074 Z M103.640935,9.15613383 C102.891045,7.43122677 101.511248,4.18215613 101.481253,4.1598513 L101.481253,4.1598513 C101.481253,4.1598513 100.063961,7.43122677 99.3215704,9.15613383 L96.9519188,14.4349442 L106.010587,14.4349442 L103.640935,9.15613383 Z" id="Shape" fill="#000000"></path>
            </g>
        </g>
    </g>
</svg>