<?xml version="1.0" encoding="UTF-8"?>
<svg width="45px" height="33px" viewBox="0 0 45 33" version="1.1" xmlns="http://www.w3.org/2000/svg" xmlns:xlink="http://www.w3.org/1999/xlink">
    <title>obie-logo</title>
    <defs>
        <linearGradient x1="12.0209704%" y1="24.6976744%" x2="88.0193257%" y2="75.3488372%" id="linearGradient-1">
            <stop stop-color="#FFD472" offset="0%"></stop>
            <stop stop-color="#EF5DA2" offset="100%"></stop>
        </linearGradient>
    </defs>
    <g id="Home" stroke="none" stroke-width="1" fill="none" fill-rule="evenodd">
        <g id="Desktop-HD" transform="translate(-129.000000, -3121.000000)">
            <g id="Obie" transform="translate(127.000000, 3121.000000)">
                <g id="obie-logo" transform="translate(2.000000, 0.000000)">
                    <path d="M5.72233787,4 L6.22193755,4 C10.8893515,4 12,6.66096717 12,10.2455133 L12,26.8093715 C12,30.3939176 10.9527622,33 6.22193755,33 L5.72233787,33 C1.05492394,33 0,30.3390328 0,26.6996019 L0,10.2455133 C0,6.66096717 1.05492394,4 5.72233787,4 M8.5008807,27.9487046 L8.5008807,9.05129544 C8.5008807,7.58454611 7.55548439,6.66096717 6.00288231,6.66096717 C4.45028022,6.66096717 3.50488391,7.58454611 3.50488391,9.05129544 L3.50488391,27.9487046 C3.50488391,29.4154539 4.44835869,30.3390328 6.00288231,30.3390328 C7.44595677,30.3390328 8.5008807,29.4154539 8.5008807,27.9487046" id="O" fill="#010101"></path>
                    <path d="M30.6418421,0 L30.3581579,0 C27.6263158,0 27,1.41767442 27,3.34883721 L27,4.65116279 C27,6.57860465 27.6263158,8 30.3581579,8 L30.6418421,8 C33.3736842,8 34,6.58232558 34,4.71255814 L34,3.41023256 C34,1.41767442 33.3736842,0 30.6418421,0 Z M32.1965789,4.95627907 C32.1965789,5.71162791 31.5057895,6.25860465 30.4723684,6.25860465 C29.4389474,6.25860465 28.7463158,5.77674419 28.7463158,4.95627907 L28.7463158,3.04372093 C28.7463158,2.28651163 29.3671053,1.74139535 30.4723684,1.74139535 C31.5776316,1.74139535 32.1965789,2.22325581 32.1965789,3.04372093 L32.1965789,4.95627907 Z" id="o-2" fill="url(#linearGradient-1)"></path>
                    <path d="M21.9275362,10.635514 C20.084058,10.635514 18.9091787,11.5476636 18.1285024,12.0299065 L18.1285024,3.01869159 C18.1285024,2.32149533 17.742029,2 16.9555556,2 L16.1729469,2 C15.4463768,2 15,2.32149533 15,3.01869159 L15,31.7663551 C15,32.4635514 15.3864734,32.7850467 16.1729469,32.7850467 L16.8995169,32.7850467 C17.8483092,32.7850467 18.1285024,32.3570093 18.1285024,31.6056075 C18.8550725,32.0878505 20.084058,33 21.9275362,33 C23.7710145,33 25,31.6056075 25,29.7831776 L25,13.8523364 C25,12.0934579 23.7710145,10.635514 21.9275362,10.635514 Z M21.9275362,29.0317757 C21.9275362,30.211215 21.2570048,30.8542056 20.0280193,30.8542056 C18.7990338,30.8542056 18.1285024,30.1570093 18.1285024,29.0317757 L18.1285024,14.764486 C18.1285024,13.5850467 18.7990338,12.9420561 20.0280193,12.9420561 C21.3130435,12.9420561 21.9275362,13.5308411 21.9275362,14.764486 L21.9275362,29.0317757 Z" id="b" fill="#010101"></path>
                    <path d="M30.5,32 C29.6715729,32 29,31.3378329 29,30.5210084 L29,11.4789916 C29,10.6621671 29.6715729,10 30.5,10 C31.3284271,10 32,10.6621671 32,11.4789916 L32,30.5210084 C32,31.3378329 31.3284271,32 30.5,32" id="i" fill="#010101"></path>
                    <path d="M39.9452343,10 C43.7224008,10 45,11.6498132 45,14.5102532 L45,21.6059776 C45,22.36978 44.721844,22.5970112 43.9430073,22.5970112 L38.1132414,22.5970112 L38.1132414,28.9843088 C38.1132414,30.1949357 38.7232663,30.8537152 39.9452343,30.8537152 C41.2228335,30.8537152 41.8884896,30.2503113 41.8884896,29.0396845 L41.8884896,26.7291822 C41.8884896,26.0131175 42.2222768,25.6827729 42.9991952,25.6827729 L43.9410889,25.6827729 C44.6642945,25.6827729 44.9980817,26.0131175 44.9980817,26.7291822 L44.9980817,28.4897468 C44.9980817,31.3540058 43.7761137,33 39.943316,33 C36.2236991,33 35.001731,31.3501868 35.001731,28.4897468 L35.001731,14.5656289 C34.9460998,11.5944375 36.2236991,10 39.943316,10 M39.943316,12.1443753 C38.721348,12.1443753 38.1113231,12.8050643 38.1113231,14.0710668 L38.1113231,20.3418846 L41.8884896,20.3418846 L41.8884896,14.0156912 C41.8328584,12.7496887 41.2228335,12.1443753 39.9452343,12.1443753" id="e" fill="#010101"></path>
                </g>
            </g>
        </g>
    </g>
</svg>