<?xml version="1.0" encoding="UTF-8"?>
<svg width="138px" height="22px" viewBox="0 0 138 22" version="1.1" xmlns="http://www.w3.org/2000/svg" xmlns:xlink="http://www.w3.org/1999/xlink">
    <title>stackbit-logo</title>
    <defs>
        <path d="M11.7063188,0.32918462 L1.25158503,6.42143545 C0.413430992,6.90495709 -0.0726155024,7.84844368 0.00885251793,8.83396676 L0.00885251793,8.83396676 L0.00885251793,12.8954673 C-0.0621607684,13.8935811 0.443019861,14.8415354 1.29892722,15.3161217 L1.29892722,15.3161217 L11.7536611,21.2050944 C12.4957499,21.6272874 13.3966323,21.6272874 14.1385239,21.2050944 L14.1385239,21.2050944 L24.3959987,15.3161217 C25.2388869,14.8319908 25.7300621,13.8860674 25.6525392,12.8954673 L25.6525392,12.8954673 L25.6525392,8.83396676 C25.7255252,7.85291133 25.2412541,6.91673543 24.4098069,6.43158921 L24.4098069,6.43158921 L14.1523321,0.339338371 C13.7714247,0.11311279 13.3459368,0 12.9206461,0 L12.9206461,0 C12.5018649,0 12.0830838,0.109660515 11.7063188,0.32918462 L11.7063188,0.32918462 Z M12.5348072,15.4339052 L2.08007338,9.34165432 C1.95027687,9.26773502 1.84336242,9.15766835 1.77175736,9.02404501 L1.77175736,9.02404501 C1.56069009,8.631501 1.69877148,8.13741945 2.08007338,7.92012918 L2.08007338,7.92012918 L12.5348072,1.82787833 C12.779014,1.68288276 13.079637,1.68288276 13.3238437,1.82787833 L13.3238437,1.82787833 L23.5813185,7.93434438 C23.9586752,8.1587423 24.0880772,8.65546383 23.8703032,9.04414947 L23.8703032,9.04414947 C23.652529,9.43283502 23.169836,9.56605224 22.792282,9.34165432 L22.792282,9.34165432 L12.9253803,3.47481681 L4.07633576,8.63089176 L13.3120082,14.01238 C13.6933101,14.2333256 13.8284326,14.7306564 13.6138147,15.1229973 L13.6138147,15.1229973 C13.4682375,15.3894317 13.1995705,15.5390981 12.9228159,15.5390981 L12.9228159,15.5390981 C12.7912441,15.5390981 12.6576997,15.5049815 12.5348072,15.4339052 L12.5348072,15.4339052 Z M12.550588,19.6984807 L2.0958541,13.809305 C2.06587072,13.7948867 2.03647911,13.7784376 2.00866557,13.7601608 L2.00866557,13.7601608 C1.64058003,13.519923 1.53129848,13.0179216 1.76465603,12.6389836 L1.76465603,12.6389836 C1.99761906,12.2602487 2.48544089,12.147542 2.85332917,12.3877798 L2.85332917,12.3877798 L12.9253803,18.0596653 L22.8021449,12.3877798 C23.1834468,12.169068 23.6647591,12.3100021 23.8772073,12.7025461 L23.8772073,12.7025461 C24.0896554,13.0952932 23.9527574,13.5905932 23.5714555,13.809305 L23.5714555,13.809305 L13.3139808,19.6984807 C13.1952308,19.7661048 13.063659,19.7998152 12.9322844,19.7998152 L12.9322844,19.7998152 C12.8007125,19.7998152 12.669338,19.7661048 12.550588,19.6984807 L12.550588,19.6984807 Z" id="path-1"></path>
    </defs>
    <g id="Home" stroke="none" stroke-width="1" fill="none" fill-rule="evenodd">
        <g id="Desktop-HD" transform="translate(-129.000000, -2266.000000)">
            <g id="Stackbit" transform="translate(127.000000, 2265.000000)">
                <g id="stackbit-logo" transform="translate(2.000000, 1.000000)">
                    <g id="Stackbit" transform="translate(30.642857, 1.571429)" fill-rule="nonzero">
                        <path d="M6.01200698,10.7573579 C5.11294083,10.5405148 4.25961353,10.1628984 3.49239451,9.64199269 C2.18028693,8.73884836 1.38522689,7.24687156 1.36056769,5.64275532 C1.26451617,4.32079636 1.70201794,3.01591955 2.57364079,2.02535466 C3.59003695,0.954805042 4.98029827,0.327989892 6.44752012,0.278954016 C8.87167764,0.278954016 10.2259445,1.21545886 11.4390176,2.05148034 L11.9858948,2.43130741 L10.2498082,5.44580794 L9.65321489,5.04387453 C8.58332423,4.31034607 7.89326459,3.83807431 6.44354283,3.83807431 C6.22876922,3.83807431 5.39751587,4.01492501 4.9699573,4.4972451 C4.82677489,4.64997979 4.66171741,4.92731386 4.68558115,5.50207861 C4.70944488,6.41446746 5.30404955,6.92090355 6.82536255,7.32484662 C7.02422697,7.37508828 7.15746614,7.42532999 7.30064854,7.47758135 C8.89156412,8.06038477 10.1285009,8.84415493 10.9856066,9.83291107 C11.8214339,10.7873019 12.2875722,12.0152085 12.298112,13.2897393 C12.273055,14.583764 11.8025418,15.8287527 10.9677088,16.810475 C10.0231027,17.969651 8.61355157,18.6386691 7.12763649,18.633243 C6.136695,18.6467077 5.15032737,18.5014088 4.2043292,18.2031743 C2.66670935,17.679656 1.29414698,16.7531995 0.227040382,15.5182591 L2.65119792,13.086562 C3.76026491,14.4125403 5.41064091,15.1504901 7.12763649,15.0881904 C8.50576704,15.0881904 8.95718933,13.7457328 8.95718933,13.2897393 C8.95718933,12.3271089 7.93502614,11.4406447 6.19893957,10.8075996 L6.12734836,10.7814739 L6.01200698,10.7573579 Z" id="Fill-2" fill="#272B34"></path>
                        <polygon id="Fill-4" fill="#272B34" points="26.638187 0.528172825 26.638187 4.07322548 22.0265206 4.07322548 22.0265206 18.283581 18.6975299 18.283581 18.6975299 4.07322548 14.0639885 4.07322548 14.0639885 0.528172825"></polygon>
                        <path d="M36.5496504,11.4507332 L34.8135639,7.49168922 L32.9362835,11.4507332 L36.5496504,11.4507332 Z M38.1186909,14.9877472 L31.2240607,14.9877472 L29.6550203,18.2836011 L25.9243234,18.2836011 L34.4098691,0.528192923 L35.3843048,0.528192923 L43.2533708,18.2836011 L39.5684128,18.2836011 L38.1186909,14.9877472 Z" id="Fill-6" fill="#272B34"></path>
                        <path d="M55.6167533,4.8328595 C52.3852062,2.6081581 47.5110388,4.68012481 47.5110388,9.44102603 C47.5110388,14.4290196 52.6695821,16.4306479 55.8076629,13.8984675 L57.9474445,16.5110346 C56.4245406,17.8711772 54.4651293,18.6266111 52.4329336,18.6372624 C47.6780848,18.6372624 43.8042054,14.5094063 43.8042054,9.44504534 C43.8042054,4.38068443 47.6780848,0.248809011 52.4307461,0.248809011 C54.3768332,0.25925928 56.2588866,0.95098667 57.7565346,2.2062247 L55.6167533,4.8328595 Z" id="Fill-8" fill="#272B34"></path>
                        <polygon id="Fill-10" fill="#272B34" points="64.965311 10.1505389 63.6826352 11.5432382 63.6826352 18.2533154 60.3538434 18.2533154 60.3538434 0.52825321 63.6806467 0.52825321 63.6806467 6.24977526 68.5528253 0.526243545 73.0451732 0.526243545 67.2226211 7.46562376 73.1885548 18.2533154 69.2112657 18.2533154"></polygon>
                        <path d="M79.6535182,7.54189069 C80.7430966,7.50692244 81.6019922,6.59151914 81.578526,5.49002063 C81.5984126,4.40037916 80.7403124,3.50065123 79.6618707,3.48055457 C79.6590866,3.48055457 79.6563024,3.48055457 79.6535182,3.48035359 L78.2037963,3.48035359 L78.2037963,7.54189069 L79.6535182,7.54189069 Z M80.7075,15.241126 C81.8517655,15.2254506 82.7671387,14.275682 82.7518261,13.1191186 L82.7518261,13.1146973 C82.7719117,11.9508992 81.8589247,10.9888716 80.7075,10.9603343 L75.2566254,10.9603343 L75.2566254,0.528152727 L79.7967007,0.528152727 C82.4831605,0.528152727 84.6688794,2.85735682 84.6688794,5.71912265 C84.6766348,6.75611084 84.3789347,7.77179657 83.8137624,8.63715922 C85.0743637,9.68077932 85.7996228,11.2449032 85.7864972,12.8916243 C85.7864972,15.8799992 83.5271982,18.2594449 80.7472725,18.2594449 L79.5540858,18.2594449 L79.5540858,15.2449444 L80.7075,15.241126 Z" id="Fill-12" fill="#272B34"></path>
                        <polygon id="Fill-14" fill="#272B34" points="88.6878902 18.2534561 92.0148921 18.2534561 92.0148921 0.528192923 88.6878902 0.528192923"></polygon>
                        <polygon id="Fill-16" fill="#272B34" points="106.720838 0.528172825 106.720838 4.07322548 102.10937 4.07322548 102.10937 18.283581 98.7801804 18.283581 98.7801804 4.07322548 94.1468382 4.07322548 94.1468382 0.528172825"></polygon>
                        <polygon id="Fill-17" fill="#207BEA" points="75.254597 18.2594851 78.3449504 18.2594851 78.3449504 15.2449846 75.254597 15.2449846"></polygon>
                    </g>
                    <g id="Fill-19-Clipped">
                        <mask id="mask-2" fill="white">
                            <use xlink:href="#path-1"></use>
                        </mask>
                        <g id="path-1"></g>
                        <polygon id="Fill-19" fill="#207BEA" fill-rule="nonzero" mask="url(#mask-2)" points="-0.475195095 22 26.1357302 22 26.1357302 -0.47826087 -0.475195095 -0.47826087"></polygon>
                    </g>
                </g>
            </g>
        </g>
    </g>
</svg>