<?xml version="1.0" encoding="UTF-8"?>
<svg width="141px" height="40px" viewBox="0 0 141 40" version="1.1" xmlns="http://www.w3.org/2000/svg" xmlns:xlink="http://www.w3.org/1999/xlink">
    <title>evme-logo</title>
    <g id="Home" stroke="none" stroke-width="1" fill="none" fill-rule="evenodd">
        <g id="Desktop-HD" transform="translate(-130.000000, -6187.000000)">
            <g id="EverythingMe" transform="translate(129.000000, 6187.000000)">
                <g id="evme-logo" transform="translate(1.000000, 0.000000)">
                    <path d="M136.864282,15.627267 L135.988132,15.627267 L135.988132,15.3210757 L138.085718,15.3210757 L138.085718,15.627267 L137.209319,15.627267 L137.209319,17.9868668 L136.864282,17.9868668 L136.864282,15.627267 Z M138.445681,15.3210507 L138.86883,15.3210507 L139.722841,17.5762602 L140.591777,15.3210507 L141,15.3210507 L141,17.9868418 L140.684566,17.9868418 L140.684566,15.8849281 L139.852945,17.9868668 L139.574328,17.9868668 L138.757632,15.8924328 L138.757632,17.9869418 L138.445681,17.9869418 L138.445681,15.3210507 L138.445681,15.3210507 Z M116.274003,0 C114.856779,0.000650139548 113.444235,0.163541742 112.063656,0.485528455 C111.082258,0.704742811 110.117995,0.995363887 109.178479,1.35509694 C98.7574647,5.34484053 93.2592608,16.9266041 96.8979464,27.2237649 C99.6975476,35.1457161 107.091341,40 115.097842,40 C117.498176,40 119.951994,39.5642276 122.35581,38.6441526 C128.223231,36.4017529 132.773548,31.6201522 134.743312,25.6270169 C134.984116,24.8323952 134.721171,24.6450281 134.463948,24.6450281 C134.384334,24.6460086 134.305545,24.6613969 134.231353,24.6904565 C133.791537,24.8621138 133.424608,24.982439 133.190769,24.982439 C132.966134,24.982439 132.86439,24.8714196 132.938522,24.5881926 C134.458476,20.5876173 134.641069,16.0938837 133.136787,11.8366729 C130.542666,4.49631019 123.692922,0 116.274003,0 M9.75656316,24.0360725 C9.58154869,25.0188868 9.11487385,25.818203 8.35653864,26.4340213 C7.59820342,27.0498395 6.51899453,27.3578487 5.11891196,27.3578487 C3.50009862,27.3578487 2.24217696,26.833521 1.34514697,25.7848655 C0.448382322,24.7365604 0,23.2956348 0,21.4620888 C0,20.4650156 0.127599859,19.5850823 0.382799577,18.8222889 C0.637800282,18.0598791 0.995101447,17.4182531 1.45470307,16.8974109 C1.8992752,16.3875215 2.45263076,15.9851912 3.07346665,15.7204503 C3.69319001,15.4564186 4.37501341,15.3244278 5.11893684,15.3244278 C5.99394284,15.3244278 6.73775018,15.4674255 7.35035886,15.7534209 C7.96296754,16.0394163 8.46245448,16.4280509 8.84881969,16.9193246 C9.23506881,17.4109318 9.5158084,17.9939212 9.69103846,18.6682927 C9.86605293,19.3430644 9.95351042,20.0690015 9.95351042,20.8461038 L9.95351042,21.6600876 L1.312509,21.6600876 C1.312509,22.3025558 1.39250353,22.9046654 1.55249259,23.4664165 C1.71241531,24.0284344 1.95223306,24.5174651 2.27194584,24.9335084 C2.59177587,25.3496294 3.00206419,25.6866287 3.47139114,25.9186992 C3.95130857,26.1595997 4.50389855,26.2800083 5.12916108,26.279925 C5.69624577,26.279925 6.17603052,26.2254743 6.56851535,26.1165729 C6.96100018,26.0076715 7.28810956,25.8515739 7.54984351,25.6482802 C7.80187649,25.4562524 8.01326002,25.2155701 8.17160674,24.9403377 C8.33030683,24.6559877 8.45132185,24.3519767 8.53156969,24.0360475 L9.75656316,24.0360475 L9.75656316,24.0360725 Z M8.64090191,20.5603502 C8.64090191,19.9443986 8.57539379,19.3797624 8.44437756,18.8664415 C8.31336133,18.3531207 8.10987156,17.9094684 7.83390826,17.5354847 C7.55774594,17.1614176 7.1942837,16.8717282 6.74352152,16.6664165 C6.29275935,16.4611049 5.75476359,16.358424 5.12953423,16.358424 C4.03878264,16.358424 3.16623941,16.7030644 2.51190455,17.3923452 C1.85768578,18.0818928 1.46517608,19.1378945 1.33437544,20.5603502 L8.64090191,20.5603502 Z M10.5574123,15.6765729 L12.0231357,15.6765729 L15.8513056,25.6200125 L19.7671403,15.6764478 L21.1452983,15.6764478 L16.5951129,27.0058787 L15.1074982,27.0058787 L10.5574123,15.6765729 Z M31.2314502,24.0360725 C31.0565685,25.0188868 30.5898853,25.818203 29.8314008,26.4340213 C29.0729164,27.0498395 27.9936909,27.3578487 26.5937244,27.3578487 C24.9750935,27.3578487 23.7172216,26.833521 22.8201087,25.7848655 C21.9232611,24.7365604 21.4747627,23.2956598 21.4747627,21.4621639 C21.4747627,20.4650907 21.6023874,19.5851574 21.8576369,18.822364 C22.1126542,18.0599541 22.4699637,17.4183281 22.9295653,16.8974859 C23.3741339,16.3875927 23.9274904,15.9852617 24.5483289,15.7205253 C25.1680522,15.4564936 25.8498507,15.3245028 26.5937244,15.3245028 C27.4688797,15.3245028 28.212687,15.4675005 28.8251464,15.7534959 C29.4376059,16.0394913 29.937126,16.4281259 30.3237068,16.9193996 C30.70979,17.4110069 30.9904799,17.9939962 31.1657763,18.6683677 C31.3409068,19.3431395 31.4284721,20.0690765 31.4284721,20.8461789 L31.4284721,21.6601626 L22.7873215,21.6601626 C22.7873215,22.3026308 22.8673326,22.9047405 23.0273548,23.4664916 C23.1872941,24.0285095 23.4270953,24.5175401 23.7467583,24.9335835 C24.0666098,25.3496445 24.4768732,25.6866116 24.9461538,25.9186992 C25.4262703,26.1595997 25.9788603,26.2800083 26.6039238,26.279925 C27.171108,26.279925 27.6508927,26.2254743 28.0432781,26.1165729 C28.4356634,26.0076715 28.7627893,25.8515739 29.024656,25.6482802 C29.2766817,25.4562012 29.4881051,25.2155313 29.6465685,24.9403377 C29.8051329,24.6559225 29.9261406,24.3519297 30.0065314,24.0360475 L31.2314502,24.0360475 L31.2314502,24.0360725 Z M30.1157392,20.5603502 C30.1157392,19.9443986 30.0502311,19.3797624 29.9192149,18.8664415 C29.7881987,18.3531207 29.5847089,17.9094684 29.3087456,17.5354847 C29.0326164,17.1615009 28.6691708,16.8718532 28.2184086,16.6665416 C27.7676464,16.4612299 27.2296507,16.3585491 26.6044213,16.3585491 C25.5135868,16.3585491 24.6410353,16.7031895 23.9867668,17.3924703 C23.332548,18.0819345 22.9400466,19.1378945 22.8092625,20.5603502 L30.1157392,20.5603502 Z M56.9940508,12.232045 L58.2627523,12.232045 L58.2627523,17.3643027 C58.9565579,16.6421764 59.5277223,16.1860663 60.2207816,15.8414009 C60.9106992,15.4974921 61.6709884,15.3204611 62.4410092,15.3244278 C63.7243878,15.3244278 64.6723483,15.6837357 65.2848906,16.4023515 C65.897433,17.1209673 66.2038285,18.140246 66.2038285,19.4601876 L66.2038285,27.0058787 L64.935127,27.0058787 L64.935127,19.8121826 C64.935127,18.6242902 64.7235939,17.7700063 64.3005275,17.2493308 C63.8773783,16.7290056 63.206542,16.4686929 62.2880187,16.4683927 C61.8504411,16.4683927 61.3874065,16.5527288 60.898915,16.7214009 C60.4064977,16.8924433 59.9555257,17.1660743 59.5754852,17.5244028 C59.1379076,17.9059746 58.8097036,18.2982864 58.5908733,18.7013383 C58.3722089,19.1049239 58.2628352,19.6586033 58.2627523,20.3623765 L58.2627523,27.0058787 L56.9940508,27.0058787 L56.9940508,12.232045 Z M68.1757886,12.232045 L69.6193719,12.232045 L69.6193719,13.8347467 L68.1757886,13.8347467 L68.1757886,12.232045 Z M68.2631052,15.6764478 L69.5320554,15.6764478 L69.5320554,27.0058787 L68.2631052,27.0058787 L68.2631052,15.6764478 L68.2631052,15.6764478 Z M71.5022742,15.6764478 L72.7712244,15.6764478 L72.7712244,17.3643027 C73.4045801,16.6938837 74.0361944,16.1860663 74.7290049,15.8414009 C75.4190096,15.4974873 76.1793804,15.3204572 76.9494813,15.3243624 C78.2326112,15.3243624 79.1805716,15.6837357 79.7933627,16.4023515 C80.4058222,17.121134 80.7120519,18.1404128 80.7120519,19.4601876 L80.7120519,27.0058787 L79.4433504,27.0058787 L79.4433504,19.8121826 C79.4433504,18.6242902 79.2319001,17.7700063 78.8089996,17.2493308 C78.3858504,16.7290056 77.7149312,16.4686929 76.7962421,16.4683927 C76.3589132,16.4683927 75.8958786,16.5527288 75.4071383,16.7214009 C74.9147758,16.8925609 74.463827,17.1661778 74.0837085,17.5244028 C73.6461309,17.9059746 73.3180099,18.2982864 73.0993454,18.7013383 C72.8804323,19.1049239 72.7710586,19.6586033 72.7712244,20.3623765 L72.7712244,27.0058787 L71.5022742,27.0058787 L71.5022742,15.6764478 L71.5022742,15.6764478 Z M83.9310709,28.2378987 C84.0912756,28.9858662 84.4412879,29.5395455 84.981108,29.8989368 C85.5204305,30.2581614 86.3444231,30.4377736 87.4530857,30.4377736 C88.692433,30.4377736 89.6039079,30.1334167 90.1875106,29.5247029 C90.7706157,28.9160725 91.0623342,27.8930999 91.0626658,26.4557849 L91.0626658,25.4126329 C90.5957339,26.0725453 90.0904922,26.4427767 89.4558927,26.8020013 C88.8212932,27.1612258 88.0217625,27.3250782 87.146856,27.3250782 C86.3154834,27.3250782 85.5935674,27.1673963 84.981108,26.8520325 C84.3686486,26.5366688 83.8654799,26.1149885 83.471602,25.5869919 C83.077807,25.0589118 82.7861715,24.453942 82.5966955,23.7720826 C82.4056731,23.0808532 82.3099169,22.3665261 82.3120716,21.6491057 C82.3120716,20.7691807 82.4287791,19.4749719 82.6621207,18.7562727 C82.8954622,18.0375735 83.2310462,17.4253158 83.6683751,16.9193246 C84.1071638,16.412564 84.6527448,16.010507 85.2654464,15.742389 C85.8923342,15.464015 86.599656,15.3246946 87.3874118,15.3244278 C88.0142996,15.3244278 88.6486503,15.4600959 89.290464,15.7314321 C89.9322777,16.0030019 90.5228458,16.342389 91.0626658,17.060788 L91.0626658,15.6764478 L92.3313673,15.6764478 L92.3313673,26.5878674 C92.3313673,28.1130707 91.9412209,29.3156556 91.160928,30.1956223 C90.3805522,31.0759225 89.1519019,31.5159475 87.4749771,31.5156974 C86.8329146,31.5156974 86.238615,31.4570773 85.6920783,31.3398374 C85.1450441,31.2222639 84.6637668,31.0352304 84.2482463,30.7787367 C83.8357574,30.5253 83.4875211,30.1788842 83.2310462,29.7668543 C82.9683504,29.348843 82.8005999,28.8391912 82.7277946,28.2378987 L83.9310709,28.2378987 L83.9310709,28.2378987 Z M91.1064485,21.3958724 C91.1064485,20.8813508 91.0805769,19.9415885 91.0298289,19.5669043 C90.9785833,19.1922035 90.891018,18.8614217 90.767133,18.5745591 C90.6496361,18.2984985 90.4911045,18.0419954 90.2969672,17.8138336 C90.0921405,17.5789463 89.865021,17.3647072 89.6188338,17.1741588 C89.2538956,16.9094934 88.9038832,16.7183907 88.5687968,16.6008505 C88.232964,16.4832437 87.8464661,16.4244653 87.4093031,16.4244653 C86.8694831,16.4244653 86.3736115,16.5126788 85.9216884,16.6891057 C85.466146,16.8679867 85.0607001,17.1555926 84.7403035,17.5271295 C84.4047195,17.909335 84.1422724,18.3981405 83.9529622,18.993546 C83.7631546,19.588793 83.6683751,20.8004503 83.6683751,21.6381739 C83.6683751,22.4910069 83.7741831,23.2077048 83.9857992,23.7882677 C84.1970007,24.3692308 84.4703934,24.8396581 84.8059774,25.1995497 C85.1413126,25.5597749 85.5205134,25.8208547 85.9435797,25.9827892 C86.3554229,26.1422231 86.7928659,26.2242996 87.2341725,26.2249406 C87.7155328,26.2249406 88.123922,26.1735752 88.4593402,26.0708443 C88.7947583,25.9681134 89.1520677,25.7842485 89.5312685,25.5192495 C90.0396957,25.1392065 90.4426837,24.6343725 90.7017078,24.0530081 C90.9713691,23.457636 91.1062826,22.7115947 91.1064485,21.8148843 L91.1064485,21.3958724 L91.1064485,21.3958724 Z M55.2813038,25.9174484 C55.0138814,25.9174484 54.707403,25.9159475 54.3362456,25.9159475 C53.7528917,25.9159475 53.3668084,25.7220763 53.1337156,25.334334 C52.9006228,24.9465916 52.8060921,24.4750719 52.8060921,23.9187992 L52.8060921,16.742414 L55.2813038,16.742414 L55.2813038,15.6534584 L52.8060921,15.6534584 L52.8060921,12.2310444 L51.568735,12.2310444 L51.568735,23.1083427 C51.568735,23.6205879 51.5525653,24.1110444 51.5963479,24.579262 C51.6398818,25.0479049 51.7336662,25.4614134 51.9162597,25.8196373 C52.0978098,26.1811451 52.3793341,26.4822255 52.7269848,26.6866792 C53.0914255,26.9060663 53.5897018,27.0161351 54.2317643,27.0161351 C54.6494407,27.0161351 54.9653723,27.0058787 55.2813038,27.0058787 L55.2813038,25.9174484 L55.2813038,25.9174484 Z M38.264783,15.6585366 C38.1993578,15.6571357 38.1326888,15.656035 38.0630346,15.656035 C37.4067925,15.656035 36.8149806,15.83202 36.2318754,16.18404 C35.6482728,16.53596 35.1708927,16.9049656 34.706946,17.5198749 L34.706946,15.6534584 L33.3146083,15.6534584 L33.3146083,27.009631 L34.706946,27.009631 L34.706946,20.3273796 C34.706946,19.7539212 34.7880434,19.2579862 35.0067078,18.8389493 C35.225621,18.4203127 35.4883169,18.0638899 35.8239008,17.7700063 C36.1438791,17.455709 36.5191736,17.2039691 36.9306563,17.0276173 C37.3301729,16.8590869 37.8660127,16.742439 38.264783,16.742439 L38.264783,15.6584365 L38.264783,15.6585366 Z M48.8835656,15.6533834 L45.2302029,25.3550969 L41.1395113,15.6533834 L39.6737879,15.6533834 L44.5082869,26.8404503 L43.9833927,28.1880425 C43.8226905,28.5692808 43.680397,28.8839775 43.5567608,29.1258787 C43.432627,29.3677799 43.2977964,29.5674046 43.1520201,29.7212508 C43.0203663,29.8661371 42.8550738,29.9759744 42.6709086,30.0409506 C42.4957781,30.0994872 42.2769478,30.1289222 42.0144178,30.1292558 C41.7957534,30.1292558 41.4519601,30.1282552 41.3586733,30.1282552 L41.3586733,31.2099312 L42.1457657,31.2099312 C42.5686662,31.2099312 42.9333557,31.179162 43.2395854,31.0548343 C43.5458151,30.9300063 43.8117449,30.7629018 44.038121,30.5207505 C44.2799028,30.2587284 44.48587,29.9654638 44.6505805,29.6487054 C44.8329252,29.30399 45.0115385,28.9114947 45.1864203,28.4862289 L50.3055064,15.6533834 L48.8835656,15.6533834 L48.8835656,15.6533834 Z" id="everything" fill="#5C5F61"></path>
                    <path d="M128.77346,16.8210896 C128.621708,16.4544039 128.389519,16.1279197 128.09467,15.8666341 C127.792849,15.5961821 127.412021,15.3841617 126.952185,15.2305729 C126.492349,15.0769841 125.960651,15.0001646 125.357091,15.0001646 C124.408756,15.0001646 123.593223,15.1610668 122.910492,15.4828711 C122.228006,15.8048091 121.642432,16.2215951 121.153769,16.733229 C120.774321,17.1314322 120.441608,17.5731433 120.162317,18.0494824 C119.89782,18.4994458 119.674163,18.9730024 119.494122,19.4642779 C119.328039,19.9154778 119.205341,20.3820047 119.127748,20.8573089 C119.059749,21.2632872 119.023662,21.6741367 119.019832,22.0859525 C119.019832,22.875661 119.116825,23.5849644 119.310812,24.2138627 C119.497285,24.8308628 119.834805,25.3895003 120.291669,25.837302 C120.665188,26.2028862 121.117797,26.4880652 121.649495,26.6928391 C122.181193,26.897613 122.791981,27 123.481857,27 C124.257723,27 124.983407,26.897613 125.658912,26.6928391 C126.327684,26.4908902 126.971376,26.2112235 127.577263,25.8593675 L127.900026,23.4831207 C125.699812,24.8867331 124.212141,24.7834268 124.212141,24.7834268 L124.211895,24.7824238 C124.184054,24.7826746 124.156459,24.784179 124.128371,24.784179 C123.424203,24.784179 122.853002,24.6123444 122.414766,24.2686753 C121.976201,23.9254241 121.742711,23.2929735 121.714294,22.3713237 C122.906796,22.3713237 123.959351,22.2543101 124.871959,22.0202827 C125.784568,21.78669 126.546225,21.472291 127.15693,21.0770857 C127.767636,20.6818804 128.227472,20.2211976 128.536438,19.6950372 C128.840636,19.1860237 129.000998,18.60149 128.999887,18.0057276 C129.003363,17.5993791 128.926355,17.1964833 128.77346,16.8210896 L128.77346,16.8210896 Z M126.176073,18.9160772 C126.017894,19.1868803 125.759273,19.4318484 125.400208,19.6509816 C125.040733,19.8702485 124.577283,20.0493212 124.00986,20.1881997 C123.441943,20.3273791 122.748617,20.3969186 121.929881,20.3968185 C122.050943,19.907354 122.224366,19.4328711 122.447042,18.9818723 C122.662629,18.5505934 122.90696,18.1812732 123.180036,17.8739117 C123.43467,17.5815608 123.737403,17.3365911 124.074659,17.1499899 C124.397915,16.9745697 124.724786,16.8868596 125.05527,16.8868596 C125.313973,16.8868596 125.52956,16.9234097 125.702029,16.9965098 C125.862629,17.06204 126.009099,17.1588782 126.133202,17.2815802 C126.319716,17.486655 126.413095,17.7645541 126.413342,18.1152775 C126.413342,18.3785582 126.334252,18.6454915 126.176073,18.9160772 Z M115.075461,15.0001646 C114.667673,14.996117 114.262492,15.0667301 113.879263,15.2086329 C113.525084,15.3413011 113.188422,15.5181184 112.876971,15.7350439 C112.589868,15.9345899 112.322734,16.162374 112.079424,16.4151106 C111.872428,16.6277237 111.684818,16.8590134 111.518899,17.1061349 C111.475781,16.53571 111.238677,16.0421379 110.807586,15.6254188 C110.376495,15.2086997 109.729818,15.0002817 108.867554,15.0001646 C108.39351,15.0001646 107.958887,15.0879249 107.563686,15.2634454 C107.182402,15.4301273 106.826673,15.6517831 106.507435,15.9215971 C106.210956,16.1714401 105.943385,16.4548157 105.709888,16.766252 C105.512728,17.0256654 105.336092,17.3005814 105.18164,17.5884151 L105.634248,15.3063978 L102.013134,15.3063978 C101.725603,15.6182476 101.58196,15.9578296 101.58196,16.4256168 C101.58196,16.4990095 101.58541,16.6116936 101.592801,16.6919566 C101.600193,16.7722197 101.625078,16.8656969 101.668195,17.1775717 L102.896915,17.1775717 L101,26.6892786 L103.67278,26.6892786 L104.513445,22.5229734 C104.685914,21.6894349 104.912259,20.9438907 105.192481,20.2863407 C105.472866,19.628189 105.774688,19.0725245 106.097944,18.6193473 C106.421201,18.1661701 106.748071,17.8189571 107.078555,17.5777083 C107.408957,17.3363426 107.703551,17.215668 107.962337,17.2156847 C108.292738,17.2156847 108.522697,17.3035202 108.652214,17.4791912 C108.767029,17.6253747 108.824519,17.8300901 108.824683,18.0933374 C108.822247,18.295578 108.804206,18.4973115 108.770725,18.6966766 C108.734506,18.9235494 108.680794,19.18846 108.609096,19.4957462 L107.186225,26.6892786 L109.859252,26.6892786 L110.699916,22.5229985 C110.872385,21.68946 111.098731,20.9439158 111.378952,20.2863658 C111.659091,19.6282141 111.96083,19.0725496 112.284169,18.6193724 C112.607508,18.1661951 112.937992,17.8189821 113.275621,17.5777334 C113.613168,17.3363676 113.911375,17.2156931 114.170243,17.2157098 C114.500645,17.2157098 114.730522,17.3035453 114.859874,17.4792162 C114.974936,17.6253997 115.032425,17.8301152 115.032343,18.0933625 C115.032343,18.4151166 114.967791,18.8814746 114.838439,19.4957713 L113.221663,26.6892786 L117.187962,26.6892786 C117.489783,26.3776043 117.640571,26.0406049 117.640571,25.5722159 C117.640571,25.4989988 117.636875,25.385412 117.62973,25.3049233 C117.622585,25.2244346 117.590062,25.130155 117.532901,24.81823 L116.304181,24.81823 L117.489783,19.5693395 C117.604599,19.0723156 117.683688,18.6932163 117.726805,18.3566683 C117.768381,18.0439712 117.790026,17.7288634 117.791605,17.4133208 C117.791605,16.7113391 117.558032,16.1336593 117.090887,15.6802815 C116.623742,15.2269037 115.951933,15.0001981 115.075461,15.0001646 Z" id="me" fill="#FFFFFF"></path>
                </g>
            </g>
        </g>
    </g>
</svg>