<?xml version="1.0" encoding="UTF-8"?>
<svg width="26px" height="26px" viewBox="0 0 26 26" version="1.1" xmlns="http://www.w3.org/2000/svg" xmlns:xlink="http://www.w3.org/1999/xlink">
    <title>list-item</title>
    <g id="Page-1" stroke="none" stroke-width="1" fill="none" fill-rule="evenodd">
        <g id="list-item" fill="#079E92">
            <path d="M13,0 C20.1797017,0 26,5.82029825 26,13 C26,20.1797017 20.1797017,26 13,26 C5.82029825,26 0,20.1797017 0,13 C0,5.82029825 5.82029825,0 13,0 Z M18.9497475,7.51471863 C18.5592232,7.12419433 17.9260582,7.12419433 17.5355339,7.51471863 L17.5355339,7.51471863 L11.1601265,13.8898254 L8.34344684,11.0731415 C7.95292254,10.6826173 7.31975757,10.6826173 6.92923327,11.0731415 L6.92923327,11.0731415 L5.51501971,12.4873551 C5.12449542,12.8778794 5.12449542,13.5110444 5.51501971,13.9015687 L5.51501971,13.9015687 L10.4647672,18.8513161 C10.8552915,19.2418404 11.4884564,19.2418404 11.8789807,18.8513161 L11.8789807,18.8513161 L13.2931943,17.4371026 C13.3350152,17.3952817 13.3723575,17.3506783 13.4052212,17.3038882 L13.4052212,17.3038882 L20.363961,10.3431458 C20.7544853,9.95262146 20.7544853,9.31945648 20.363961,8.92893219 L20.363961,8.92893219 Z" id="Combined-Shape"></path>
        </g>
    </g>
</svg>