<svg width="22px" height="21px" viewBox="0 0 22 21" version="1.1" xmlns="http://www.w3.org/2000/svg" xmlns:xlink="http://www.w3.org/1999/xlink">
    <g id="Symbols" stroke="none" stroke-width="1" fill="none" fill-rule="evenodd">
        <g id="linkedin_icon/normal" transform="translate(-9.000000, -8.000000)" fill="#FFFFFE">
            <g id="linkedin_icon">
                <path d="M11.5024217,8 C12.8795609,8 14,9.13328149 14,10.5278383 C14,11.924028 12.8795609,13.0573095 11.5024217,13.0573095 C10.1172102,13.0573095 9,11.924028 9,10.5278383 C9,9.13328149 10.1172102,8 11.5024217,8 L11.5024217,8 Z M9.34226671,29 L13.6577333,29 L13.6577333,14.9727838 L9.34226671,14.9727838 L9.34226671,29 Z" id="Fill-4"></path>
                <path d="M17,15.3387482 L21.3022585,15.3387482 L21.3022585,17.2058389 L21.3644882,17.2058389 C21.9649207,16.1323412 23.4281595,15 25.6129265,15 C30.16074,15 31,17.8276724 31,21.5077814 L31,29 L26.5110524,29 L26.5110524,22.355447 C26.5110524,20.7714416 26.4807785,18.7341815 24.1765978,18.7341815 C21.8421432,18.7341815 21.4855839,20.46132 21.4855839,22.242531 L21.4855839,29 L17,29 L17,15.3387482" id="Fill-5"></path>
            </g>
        </g>
    </g>
</svg>