<svg width="22px" height="17px" viewBox="0 0 22 17" version="1.1" xmlns="http://www.w3.org/2000/svg" xmlns:xlink="http://www.w3.org/1999/xlink">
    <g id="Symbols" stroke="none" stroke-width="1" fill="none" fill-rule="evenodd">
        <g id="medium_icon/hover" transform="translate(-1.000000, -1.000000)" fill="#FFFFFE">
            <g id="medium_icon">
	<path class="st0" d="M2.6,3.5c0-0.3-0.1-0.5-0.3-0.7L0.3,0.4V0h6.4l4.9,10.5L15.9,0H22v0.4L20.2,2C20.1,2.1,20,2.3,20,2.5v12
		c0,0.2,0,0.4,0.2,0.5l1.7,1.6V17h-8.6v-0.4l1.8-1.7c0.2-0.2,0.2-0.2,0.2-0.5V4.7L10.3,17H9.7L3.9,4.7v8.2c0,0.3,0.1,0.7,0.3,0.9
		l2.3,2.7V17H0v-0.4l2.3-2.7c0.2-0.2,0.4-0.6,0.3-0.9L2.6,3.5z"></path>
	</g>
</g>
</g>
</svg>
