
<svg width="40px" height="40px" viewBox="0 0 40 40" version="1.1" xmlns="http://www.w3.org/2000/svg" xmlns:xlink="http://www.w3.org/1999/xlink">
    <g id="Symbols" stroke="none" stroke-width="1" fill="none" fill-rule="evenodd">
        <g id="medium_icon/normal">
            <rect id="Rectangle" x="0" y="0" width="40" height="40"></rect>
            <path d="M10.6087768,15.46796 C10.6361102,15.2050978 10.5331237,14.9452878 10.3314659,14.7683715 L8.27731092,12.3597884 L8.27731092,12 L14.6554622,12 L19.5854342,22.5238095 L23.9197013,12 L30,12 L30,12.3597884 L28.2436975,13.9988242 C28.0922849,14.1111626 28.0171766,14.2957987 28.0485528,14.478542 L28.0485528,26.521458 C28.0171766,26.7042013 28.0922849,26.8888373 28.2436975,27.0011758 L29.9589169,28.6402117 L29.9589169,29 L21.331466,29 L21.331466,28.6402117 L23.1083101,26.9611993 C23.2829131,26.7912992 23.2829131,26.7413287 23.2829131,26.4814815 L23.2829131,16.7472075 L18.3426704,28.9600235 L17.67507,28.9600235 L11.923436,16.7472075 L11.923436,24.9323927 C11.875481,25.2765209 11.9929026,25.6229827 12.2418301,25.8718401 L14.5527544,28.6002352 L14.5527544,28.9600235 L8,28.9600235 L8,28.6002352 L10.3109244,25.8718401 C10.5580394,25.6225701 10.6686141,25.27381 10.6087768,24.9323927 L10.6087768,15.46796 Z" id="Shape" fill="#FFFFFF" fill-rule="nonzero"></path>
        </g>
    </g>
</svg>
