<svg height="20" viewBox="0 0 25 20" width="25" xmlns="http://www.w3.org/2000/svg"><path d="m33 12.3671749c-.919788.4016363-1.9090891.6728648-2.9462433.7948432 1.0588141-.6252634 1.871814-1.613487 2.2556467-2.7931077-.9913159.5786538-2.0894199.9986364-3.2570369 1.2247428-.9354033-.980786-2.2687434-1.5936532-3.7446354-1.5936532-2.8324032 0-5.128851 2.2605677-5.128851 5.048717 0 .3956861.0453346.7809595.1334852 1.1508615-4.2629607-.2107351-8.0423526-2.2208999-10.57252528-5.275815-.44125647.7452584-.69462634 1.6129912-.69462634 2.5382422 0 1.7513326.90618766 3.2968886 2.28234372 4.2028015-.8407044-.0262799-1.63254823-.2533779-2.32364855-.6322052-.00050372.0213214-.00050372.0431387-.00050372.0639643 0 2.4465104 1.76905567 4.4864261 4.11486777 4.9500433-.429671.1160283-.8840241.1775134-1.3509702.1775134-.3314461 0-.6518104-.0317343-.9651226-.0902442.6528178 2.0057022 2.5462916 3.4654766 4.7913602 3.5061361-1.7559589 1.3546547-3.9672785 2.1613983-6.37051437 2.1613983-.4130483 0-.82257057-.0238007-1.22302593-.0709062 2.2687433 1.4334945 4.9656465 2.269493 7.8620217 2.269493 9.4341239 0 14.5931978-7.6930705 14.5931978-14.3661832 0-.2191645-.0050372-.4368415-.0146078-.6530309 1.0023977-.7120367 1.871814-1.6010908 2.5593883-2.613611" fill="#fff" fill-rule="evenodd" transform="translate(-8 -10)"/></svg>